<?xml version="1.0" encoding="UTF-8" standalone="no"?>
<!-- Created with Inkscape (http://www.inkscape.org/) -->

<svg
   width="35.367577mm"
   height="34.3741mm"
   viewBox="0 0 35.367577 34.3741"
   version="1.1"
   id="svg1"
   xml:space="preserve"
   sodipodi:docname="icon.svg"
   inkscape:export-filename="icon.svg"
   inkscape:export-xdpi="8.8303814"
   inkscape:export-ydpi="8.8303814"
   xmlns:inkscape="http://www.inkscape.org/namespaces/inkscape"
   xmlns:sodipodi="http://sodipodi.sourceforge.net/DTD/sodipodi-0.dtd"
   xmlns="http://www.w3.org/2000/svg"
   xmlns:svg="http://www.w3.org/2000/svg"><sodipodi:namedview
     id="namedview1"
     pagecolor="#ffffff"
     bordercolor="#000000"
     borderopacity="0.25"
     inkscape:showpageshadow="2"
     inkscape:pageopacity="0.0"
     inkscape:pagecheckerboard="0"
     inkscape:deskcolor="#d1d1d1"
     inkscape:document-units="mm" /><defs
     id="defs1" /><g
     inkscape:label="Camada 1"
     inkscape:groupmode="layer"
     id="layer1"
     transform="translate(-112.30526,-115.98984)"><ellipse
       style="opacity:1;fill:#039846;fill-opacity:1;stroke:#000080;stroke-width:0"
       id="path9"
       cx="129.98904"
       cy="133.1769"
       rx="17.683788"
       ry="17.18705"
       inkscape:export-filename="icon.svg"
       inkscape:export-xdpi="8.8303814"
       inkscape:export-ydpi="8.8303814" /><path
       style="fill:#ffffff;fill-opacity:1;stroke-width:0.999999"
       d="m 139.56138,140.15689 c -5.20286,-0.90294 -6.32472,-9.94866 -1.60308,-12.92581 3.11453,-1.96386 8.38067,0.36295 6.21019,2.74393 -0.96067,1.05382 -0.96067,1.05382 -1.36727,0.49806 -1.26515,-1.72919 -3.75221,-1.16995 -4.63074,1.04122 -1.53735,3.86933 2.05662,7.65244 4.62925,4.87289 0.98174,-1.06073 2.56592,1.17603 1.61454,2.27963 -1.08927,1.26357 -2.91958,1.82561 -4.85289,1.49008 z m -22.39322,-6.82405 c 0,-6.62891 0,-6.62891 1.42416,-6.62891 1.42412,0 1.42412,0 1.42412,6.62891 0,6.6289 0,6.6289 -1.42412,6.6289 -1.42416,0 -1.42416,0 -1.42416,-6.6289 z m 4.58927,-1.7e-4 c -0.0656,-8.74271 0.97733,-9.43475 4.1337,-2.74283 1.00807,2.13726 1.85727,3.88592 1.88709,3.88592 0.0297,0 0.86292,-1.74866 1.8513,-3.88592 3.08699,-6.67517 4.09447,-6.00021 4.09447,2.743 0,6.6289 0,6.6289 -1.24614,6.6289 -1.24614,0 -1.24614,0 -1.24614,-3.42876 0,-4.129 0.0508,-4.11074 -1.57763,-0.56656 -1.81847,3.95775 -1.97199,3.96248 -3.79868,0.11666 -1.61679,-3.40401 -1.56644,-3.42213 -1.56644,0.5643 0,3.31446 0,3.31446 -1.24089,3.31446 -1.24089,0 -1.24089,0 -1.29064,-6.62904 z"
       id="path1"
       sodipodi:nodetypes="ssssssssssssscsssssscsssc" /></g></svg>
