<?xml version="1.0" encoding="UTF-8" standalone="no"?>
<!-- Created with Inkscape (http://www.inkscape.org/) -->

<svg
   width="34.676079mm"
   height="18.216024mm"
   viewBox="0 0 34.676079 18.216025"
   version="1.1"
   id="svg1"
   xml:space="preserve"
   sodipodi:docname="icon.svg"
   inkscape:export-filename="icon.svg"
   inkscape:export-xdpi="8.8303814"
   inkscape:export-ydpi="8.8303814"
   xmlns:inkscape="http://www.inkscape.org/namespaces/inkscape"
   xmlns:sodipodi="http://sodipodi.sourceforge.net/DTD/sodipodi-0.dtd"
   xmlns="http://www.w3.org/2000/svg"
   xmlns:svg="http://www.w3.org/2000/svg"><sodipodi:namedview
     id="namedview1"
     pagecolor="#ffffff"
     bordercolor="#000000"
     borderopacity="0.25"
     inkscape:showpageshadow="2"
     inkscape:pageopacity="0.0"
     inkscape:pagecheckerboard="0"
     inkscape:deskcolor="#d1d1d1"
     inkscape:document-units="mm" /><defs
     id="defs1" /><g
     inkscape:label="Camada 1"
     inkscape:groupmode="layer"
     id="layer1"
     transform="translate(-112.83191,-124.56573)"><path
       style="fill:#ffffff;fill-opacity:1;stroke-width:1"
       d="m 141.02827,142.65896 c -6.55116,-1.16234 -7.96375,-12.8067 -2.01851,-16.63914 3.92166,-2.52803 10.5525,0.46723 7.81954,3.53221 -1.20962,1.35657 -1.20962,1.35657 -1.72159,0.64115 -1.59301,-2.22595 -4.72459,-1.50605 -5.83078,1.34033 -1.93575,4.98092 2.58959,9.85084 5.8289,6.27278 1.23616,-1.36545 3.23087,1.51388 2.03295,2.93452 -1.37155,1.62658 -3.67618,2.35007 -6.11051,1.91815 z m -28.19636,-8.78446 c 0,-8.53326 0,-8.53326 1.79323,-8.53326 1.79317,0 1.79317,0 1.79317,8.53326 0,8.53325 0,8.53325 -1.79317,8.53325 -1.79323,0 -1.79323,0 -1.79323,-8.53325 z m 5.77856,-2.2e-4 c -0.0827,-11.25431 1.23061,-12.14516 5.20494,-3.53078 1.2693,2.75124 2.33857,5.00225 2.37612,5.00225 0.0374,0 1.08655,-2.25101 2.33106,-5.00225 3.88698,-8.59282 5.15555,-7.72396 5.15555,3.531 0,8.53325 0,8.53325 -1.56908,8.53325 -1.56907,0 -1.56907,0 -1.56907,-4.41377 0,-5.31519 0.064,-5.29167 -1.98647,-0.72932 -2.28972,5.09473 -2.48303,5.10082 -4.7831,0.15017 -2.03577,-4.38192 -1.97237,-4.40524 -1.97237,0.72641 0,4.26665 0,4.26665 -1.56247,4.26665 -1.56247,0 -1.56247,0 -1.62511,-8.53344 z"
       id="path1"
       sodipodi:nodetypes="ssssssssssssscsssssscsssc"
       inkscape:export-filename=".\path1.png"
       inkscape:export-xdpi="8.8303814"
       inkscape:export-ydpi="8.8303814" /></g></svg>
