<?xml version="1.0" encoding="UTF-8" standalone="no"?>
<!-- Created with Inkscape (http://www.inkscape.org/) -->

<svg
   width="27.316929mm"
   height="27.291746mm"
   viewBox="0 0 27.316929 27.291746"
   version="1.1"
   id="svg1"
   xml:space="preserve"
   xmlns:inkscape="http://www.inkscape.org/namespaces/inkscape"
   xmlns:sodipodi="http://sodipodi.sourceforge.net/DTD/sodipodi-0.dtd"
   xmlns="http://www.w3.org/2000/svg"
   xmlns:svg="http://www.w3.org/2000/svg"><sodipodi:namedview
     id="namedview1"
     pagecolor="#ffffff"
     bordercolor="#000000"
     borderopacity="0.25"
     inkscape:showpageshadow="2"
     inkscape:pageopacity="0.0"
     inkscape:pagecheckerboard="0"
     inkscape:deskcolor="#d1d1d1"
     inkscape:document-units="mm" /><defs
     id="defs1" /><g
     inkscape:label="Camada 1"
     inkscape:groupmode="layer"
     id="layer1"
     transform="translate(-110.7157,-124.53368)"><path
       style="fill:#ffffff;stroke-width:0.264583"
       d="m 111.51111,151.715 c -0.30972,-0.13224 -0.42518,-0.22619 -0.61754,-0.50263 l -0.14847,-0.21336 -0.0147,-10.77279 -0.0147,-10.77281 0.14648,-0.28181 c 0.10072,-0.19385 0.22918,-0.33589 0.41137,-0.45498 l 0.26487,-0.17316 1.7991,-0.0154 1.79912,-0.0155 0.002,1.13557 c 0,0.62455 0.0267,1.28826 0.0589,1.47488 0.11332,0.65728 0.55525,1.21781 1.17613,1.49177 l 0.3228,0.14243 h 3.71153 3.71156 l 0.32499,-0.14339 c 0.35474,-0.15649 0.82374,-0.56211 0.98122,-0.8486 0.21407,-0.38949 0.2507,-0.67828 0.25139,-1.98161 l 0.002,-1.26683 1.71411,0.002 c 1.89033,0.002 1.98506,0.0157 2.32025,0.35213 0.35325,0.3546 0.35565,0.37242 0.37276,2.74034 l 0.0156,2.16023 -2.0577,2.77358 -2.05772,2.7736 -5.60766,0.0267 c -4.24412,0.0202 -5.63676,0.0424 -5.72739,0.0913 -0.20796,0.11228 -0.46827,0.43283 -0.50628,0.62344 -0.0755,0.37894 0.13525,0.79029 0.50145,0.97882 0.16742,0.0861 0.55404,0.0953 5.07031,0.11995 l 4.88909,0.0266 -0.85344,1.14677 -0.85344,1.14677 -4.0923,0.0267 -4.09233,0.0266 -0.19076,0.12809 c -0.21358,0.14339 -0.40172,0.48308 -0.40172,0.72534 0,0.24225 0.18814,0.58194 0.40172,0.72534 l 0.19076,0.12808 3.38572,0.0146 c 1.86215,0.008 3.38572,0.0235 3.38572,0.0348 0,0.0111 -0.0635,0.14853 -0.14108,0.30546 -0.17062,0.34499 -0.18217,0.72542 -0.06,1.97547 0.0904,0.92551 0.16578,1.13771 0.53291,1.50137 0.28174,0.27908 0.59158,0.41811 1.00065,0.44905 0.29051,0.0219 0.50724,-0.016 1.38997,-0.24304 0.57517,-0.14794 1.10952,-0.29243 1.18742,-0.32113 0.40895,-0.15053 0.61543,-0.39332 2.60659,-3.06529 1.10637,-1.48472 2.03167,-2.70063 2.0562,-2.70208 0.0245,-0.002 0.0372,1.71956 0.0283,3.82444 l -0.0164,3.82703 -0.15642,0.29984 c -0.16673,0.31961 -0.44197,0.54273 -0.78308,0.63482 -0.12192,0.0329 -3.35548,0.0517 -8.7781,0.0509 -8.50912,-0.002 -8.58731,-0.002 -8.83904,-0.10957 z m 14.58045,-14.79012 c 0.71049,-0.27942 0.7632,-1.23346 0.0888,-1.60741 -0.18813,-0.10429 -0.31047,-0.10705 -5.5189,-0.1229 -2.92956,-0.009 -5.45905,-0.002 -5.62111,0.0167 -0.37772,0.0425 -0.6349,0.20529 -0.79982,0.50656 -0.23959,0.43769 -0.058,0.95161 0.41446,1.17329 0.22173,0.10396 0.34627,0.10627 5.73915,0.10638 4.52764,0 5.54552,-0.0131 5.69746,-0.0727 z m -3.35944,11.33979 c -0.11223,-0.0856 -0.13179,-0.18651 -0.21474,-1.10919 l -0.0913,-1.01503 0.36239,-0.49227 c 0.24146,-0.32797 0.38908,-0.48263 0.44235,-0.4634 0.0597,0.0216 2.35818,1.50275 2.49783,1.60963 0.0309,0.0237 -0.60274,0.89437 -0.72508,0.99644 -0.0802,0.0669 -1.9211,0.56792 -2.08677,0.56792 -0.0337,0 -0.11682,-0.0423 -0.18472,-0.0941 z m 2.72895,-3.61997 c -1.22071,-0.80252 -1.26075,-0.83454 -1.18277,-0.9452 0.94578,-1.34185 11.18121,-15.0649 11.27143,-15.11209 0.31182,-0.16301 0.48587,-0.10143 1.39093,0.49209 0.47192,0.30949 0.91239,0.62754 0.9788,0.70673 0.27524,0.32831 0.53614,-0.0554 -5.52105,8.11982 -3.075,4.15018 -5.60952,7.55105 -5.63237,7.55752 -0.0228,0.007 -0.61004,-0.36203 -1.30497,-0.81887 z m -8.62509,-13.15426 c -0.10303,-0.066 -0.2407,-0.18775 -0.30588,-0.2706 -0.11514,-0.14623 -0.11851,-0.20581 -0.11851,-2.08019 0,-1.83372 0.006,-1.93864 0.11331,-2.11072 0.21509,-0.34375 0.36275,-0.40357 1.04493,-0.42352 l 0.61204,-0.0179 0.0339,-0.26934 c 0.13883,-1.10333 1.33437,-1.94231 2.50715,-1.75935 0.9581,0.14944 1.67667,0.81459 1.84358,1.70653 l 0.062,0.33124 h 0.56703 c 0.68808,0 0.94004,0.10187 1.12077,0.45337 0.10665,0.20732 0.11336,0.32936 0.11336,2.0591 0,1.80189 -0.003,1.84338 -0.12751,2.07273 -0.24424,0.44834 -0.0647,0.4286 -3.90061,0.4286 h -3.3782 z m 4.51556,-5.08548 c -0.0768,-0.44555 -0.51825,-0.74395 -1.04027,-0.70318 -0.44723,0.0349 -0.76907,0.29469 -0.86593,0.69894 l -0.0469,0.19591 h 0.99308 0.99307 z"
       id="path5"
       inkscape:export-filename="icon.png"
       inkscape:export-xdpi="8.8303814"
       inkscape:export-ydpi="8.8303814" /></g></svg>
