<?xml version="1.0" encoding="UTF-8" standalone="no"?>
<!-- Created with Inkscape (http://www.inkscape.org/) -->

<svg
   width="36.404335mm"
   height="37.613125mm"
   viewBox="0 0 36.404335 37.613125"
   version="1.1"
   id="svg1"
   xml:space="preserve"
   sodipodi:docname="Não nomeado 1"
   xmlns:inkscape="http://www.inkscape.org/namespaces/inkscape"
   xmlns:sodipodi="http://sodipodi.sourceforge.net/DTD/sodipodi-0.dtd"
   xmlns="http://www.w3.org/2000/svg"
   xmlns:svg="http://www.w3.org/2000/svg"><sodipodi:namedview
     id="namedview1"
     pagecolor="#ffffff"
     bordercolor="#000000"
     borderopacity="0.25"
     inkscape:showpageshadow="2"
     inkscape:pageopacity="0.0"
     inkscape:pagecheckerboard="0"
     inkscape:deskcolor="#d1d1d1"
     inkscape:document-units="mm" /><defs
     id="defs1" /><g
     inkscape:label="Camada 1"
     inkscape:groupmode="layer"
     id="layer1"
     transform="translate(-266.5001,-64.993971)"><g
       id="g19"
       transform="matrix(0.27828352,0,0,0.27687521,192.33752,46.99875)"
       style="stroke-width:3.60258"
       inkscape:export-filename="g19.png"
       inkscape:export-xdpi="20.931574"
       inkscape:export-ydpi="20.931574"><g
         id="g18"
         style="stroke-width:3.60258"><ellipse
           style="fill:#e6e6e6;stroke:#ffffff;stroke-width:0"
           id="path18"
           cx="331.90884"
           cy="136.35831"
           rx="65.408737"
           ry="63.92218" /><path
           style="fill:#d6eafc;stroke-width:3.60258"
           d="m 355.58897,181.43104 c 3.01956,-0.0425 7.96065,-0.0425 10.98021,0 3.01955,0.0425 0.54901,0.0772 -5.49011,0.0772 -6.03911,0 -8.50966,-0.0347 -5.4901,-0.0772 z m -41.91441,-36.5128 c -0.0485,-0.10914 -1.02901,-0.66591 -2.17889,-1.23726 -3.66496,-1.82105 -6.24292,-4.74489 -7.77584,-8.81914 -0.5613,-1.49186 -0.67485,-2.25989 -0.69395,-4.69412 -0.0139,-1.77194 0.12307,-3.42791 0.35019,-4.23333 1.34323,-4.76359 5.47969,-9.29375 9.70108,-10.62443 l 1.39669,-0.44026 2.30223,1.10469 c 4.2226,2.02614 7.40662,5.98801 8.48437,10.55708 0.53159,2.25365 0.35505,5.85114 -0.4066,8.28554 -1.31054,4.18879 -4.729,7.77801 -9.10347,9.55821 -2.05397,0.83587 -1.95693,0.81049 -2.07581,0.54302 z m -1.62392,-11.96075 c 1.18862,-0.72475 1.71212,-1.64777 1.71212,-3.01877 0,-1.16641 0.0379,-1.21617 3.15295,-4.13548 2.8363,-2.65811 3.15295,-3.04569 3.15295,-3.85925 0,-1.1768 -0.77907,-1.96273 -1.94558,-1.96273 -0.76419,0 -1.35559,0.43032 -4.26397,3.10255 -2.55751,2.34986 -3.5779,3.12459 -4.20598,3.19338 -3.24526,0.35543 -4.21997,4.96708 -1.41173,6.67936 1.08312,0.66042 2.72699,0.66083 3.80924,9.4e-4 z"
           id="path15" /><path
           style="fill:#b1d8fc;stroke-width:3.60258"
           d="m 307.23637,145.11085 c -3.10942,-0.62412 -6.34204,-2.46173 -8.5076,-4.83622 -1.47687,-1.61935 -3.25302,-4.86438 -3.74966,-6.85064 -0.43992,-1.75944 -0.38467,-5.53805 0.10896,-7.45141 1.35979,-5.27068 5.62664,-9.56916 11.08996,-11.17214 1.71626,-0.50357 5.97405,-0.60376 7.40834,-0.17433 l 0.79375,0.23765 -1.37236,0.4578 c -4.245,1.41607 -8.29753,5.8814 -9.63169,10.61283 -0.22712,0.80542 -0.3641,2.46139 -0.35019,4.23333 0.0191,2.43423 0.13265,3.20226 0.69395,4.69412 1.55147,4.12355 4.17745,7.08111 7.85225,8.84372 1.16299,0.55783 2.12175,1.08796 2.13056,1.17806 0.0461,0.47096 -4.46262,0.6294 -6.46627,0.22723 z"
           id="path13" /><path
           style="fill:#fcd0a2;stroke-width:3.60258"
           d="m 372.45615,184.1608 c 0,-2.42411 0.0293,-2.55587 0.61878,-2.77998 0.34032,-0.12939 0.94907,-0.6278 1.35277,-1.10756 l 0.73399,-0.87231 -0.13386,-9.79995 c -0.14081,-10.3082 -0.43094,-14.03262 -1.65689,-21.26972 -0.36112,-2.13183 -0.72271,-4.08442 -0.80352,-4.33908 -0.13549,-0.42699 0.16333,-0.46302 3.83965,-0.46302 h 3.98658 l -0.006,17.13177 c -0.003,9.42247 -0.11461,17.60802 -0.24697,18.1901 -0.19189,0.84384 -0.71557,1.51413 -2.58391,3.30729 -1.28878,1.23693 -2.96358,2.76606 -3.72177,3.39808 l -1.37854,1.14911 z m -17.14102,-69.63294 -0.0569,-2.93987 -2.3611,-0.13462 c -2.87722,-0.16405 -6.31521,-0.47232 -8.16173,-2.51937 -10.95001,-12.139238 -3.1395,-29.682568 -2.49347,-30.532621 1.62576,-2.139206 4.53145,-0.808443 11.71193,-0.706035 5.78128,0.08245 5.98868,0.104177 7.26337,0.760782 1.47735,0.760998 2.88039,2.422304 3.28935,3.894839 0.16103,0.579808 0.2743,4.32852 0.27517,9.10623 l 0.001,8.120724 1.12448,0.10128 1.12448,0.10128 -1.08893,0.04622 -1.08893,0.04623 -0.13424,1.785941 c -0.27397,3.64487 -2.65974,7.0224 -6.14711,8.70248 -1.01454,0.48876 -2.11209,0.88866 -2.43899,0.88866 -0.57764,0 -0.59674,0.0876 -0.67818,3.10885 l -0.0838,3.10886 z"
           id="path12"
           sodipodi:nodetypes="csscssssccsssccccssssssccccccsssscc" /><path
           style="fill:#89c8fd;stroke-width:3.60258"
           d="m 291.9965,168.08667 c -0.32786,-0.61322 -0.30361,-5.70046 0.0281,-5.9055 0.14653,-0.0906 3.38624,-0.15342 7.19936,-0.13969 5.14072,0.0185 6.98592,0.10832 7.13787,0.34747 0.2666,0.41958 0.2669,5.25206 3.5e-4,5.67154 -0.15015,0.23631 -2.05624,0.34188 -7.16602,0.39688 -6.30256,0.0678 -6.98401,0.0327 -7.19971,-0.3707 z m 21.17588,-40.03562 c -0.21692,-0.4534 -0.83939,-1.02606 -1.45168,-1.33553 -0.98777,-0.49925 -1.03601,-0.57195 -0.61442,-0.92604 0.25163,-0.21134 1.77223,-1.60465 3.37911,-3.09624 3.19411,-2.96495 3.78459,-3.21179 4.93384,-2.06255 0.36437,0.36437 0.64943,0.95872 0.64943,1.35405 0,0.74388 -0.16108,0.92364 -4.25044,4.7434 l -2.26607,2.11666 z"
           id="path11" /><path
           id="path10"
           style="fill:#fdbb85;stroke-width:3.60258"
           d="m 340.42383,77.685547 c -2.56782,-0.616365 -5.82694,1.030865 -6.63079,3.538722 -0.64135,1.705257 -0.793,2.947695 -0.75233,4.745376 -1.3261,-0.58627 -1.60518,0.295956 -2.2868,1.486257 -2.13094,0.615638 -3.71441,3.176669 -3.50615,5.411487 -0.16861,2.154776 0.26674,4.755152 2.30661,5.920633 1.12375,0.690192 2.47425,0.873834 3.7718,0.821353 1.00675,1.453335 0.63681,3.350725 1.46703,4.872235 1.36809,3.50619 4.6079,6.26949 8.3611,6.83089 0.57232,2.24738 -0.20926,4.61092 0.48954,6.84492 0.52476,2.1271 2.25794,3.95764 4.46477,4.3011 2.75466,0.55622 5.92328,-1.00938 6.7334,-3.79231 0.76176,-2.24154 0.29782,-4.63148 0.40799,-6.94355 -0.45303,-0.34852 -1.12982,-0.0502 -1.66625,-0.20284 -3.22462,-0.1233 -6.58212,-1.29707 -8.62763,-3.90573 -2.01415,-2.34554 -2.84054,-5.52578 -2.63801,-8.574079 -0.0812,-2.297939 -0.0397,-4.605329 0.23462,-6.88962 -1.05007,-0.01811 -2.26302,-0.532444 -2.44938,-1.684704 -0.41986,-1.315148 -0.24294,-2.92612 0.61931,-4.002796 0.65884,-0.428781 1.00386,0.683462 1.53798,-1.786287 -0.0938,-2.111758 0.84935,-4.207183 2.49913,-5.52426 0.60592,-0.504561 1.27561,-0.92493 1.96093,-1.3125 -2.06464,-0.162966 -4.19282,-0.188627 -6.29687,-0.154297 z m 24.56055,9.933594 c -0.49057,0.372665 -0.11787,1.151756 -0.21766,1.676505 0.0456,3.456479 -0.12344,7.200703 -0.14248,10.65705 2.16166,0.04748 4.85961,-0.669258 6.07498,-2.679258 1.68946,-2.768804 1.21992,-6.902818 -1.50459,-8.844895 -1.26492,-0.732776 -2.78149,-0.8291 -4.21025,-0.809402 z m -64.78321,70.777339 c -1.04579,0.0749 0.34764,0.0507 0.71367,0.0547 3.70333,0.008 7.50078,0.014 11.14571,-0.002 -3.95178,-0.0847 -7.90703,-0.0264 -11.85938,-0.0527 z m 12.26172,0.0508 c -0.7964,0.008 0.69409,1.4e-4 0.96015,7.2e-4 0.75172,-0.0197 -0.79088,-0.0375 -0.96015,-7.2e-4 z m -11.07227,13.44531 c -0.60607,0.0903 0.36537,0.1066 0.57266,0.0856 5.29535,-0.0192 10.67419,-0.0305 15.91758,-0.0348 -5.49524,-0.0906 -10.99388,-0.0407 -16.49024,-0.0508 z m 16.89258,0.0508 c -0.67503,0.004 0.795,-1e-4 1.09141,2e-4 0.3256,-0.0364 -0.8938,-0.0272 -1.09141,-2e-4 z"
           sodipodi:nodetypes="ccccccccccccccccccccccccccccccccccccccccccc" /><path
           style="fill:#60b4fc;stroke-width:3.60258"
           d="m 286.79003,168.25271 c -0.54024,-0.37839 -0.58804,-0.62452 -0.58804,-3.0277 0,-3.33992 0.10674,-3.43959 3.68367,-3.43959 1.95034,0 2.43703,0.0706 2.19008,0.3175 -0.39823,0.39824 -0.43371,5.32098 -0.0436,6.0499 0.26168,0.48894 0.16399,0.51177 -2.19008,0.51177 -1.80188,0 -2.622,-0.11068 -3.05202,-0.41188 z m 22.25421,-35.05846 c -1.86814,-0.56218 -2.89089,-2.92937 -2.02106,-4.67783 1.38102,-2.77604 5.20402,-2.86131 6.34045,-0.14144 1.18144,2.82758 -1.39297,5.69992 -4.31939,4.81927 z"
           id="path9" /><path
           id="path8"
           style="fill:#e0935c;stroke-width:3.60258"
           d="m 356.58008,85.886719 c -1.42001,0.121965 -1.96385,1.770384 -1.83301,2.996758 -0.08,1.223827 0.26869,2.918484 1.69183,3.173183 1.39197,0.178275 2.57621,-1.342734 2.25446,-2.664082 0.21371,-1.446364 -0.28924,-3.546931 -2.11328,-3.505859 z m -15.0957,0.03906 c -1.26569,0.340935 -1.67019,1.84454 -1.54164,3.003941 -0.1422,1.259453 0.36208,3.011248 1.83656,3.150356 1.40064,0.03936 2.38009,-1.480891 2.10047,-2.777357 0.16652,-1.244382 -0.0757,-2.986214 -1.52171,-3.332834 -0.28236,-0.07271 -0.58658,-0.112733 -0.87368,-0.04411 z m 6.8496,3.427735 c -1.31382,0.31297 -1.77638,1.890309 -1.52488,3.076504 -0.0467,1.546273 -0.22506,3.523405 1.25512,4.497754 1.40289,0.886257 3.61953,0.842654 4.62719,-0.601602 0.56175,-1.290167 -0.49946,-2.807934 -1.84571,-2.966797 -0.16006,-1.29154 0.0497,-2.983472 -1.19922,-3.800781 -0.401,-0.20801 -0.86699,-0.284801 -1.3125,-0.205078 z m -3.76367,10.308593 c -1.26855,0.311202 -1.89368,2.214743 -0.79026,3.069963 2.14674,2.56515 6.00604,3.22118 9.00865,2.14026 1.27622,-0.48959 2.55915,-1.19556 3.40075,-2.29811 1.00442,-1.24146 -0.33119,-3.196843 -1.83692,-2.909345 -1.56612,0.530795 -2.88394,2.001365 -4.66894,1.798015 -1.75135,-0.047 -2.99484,-1.5202 -4.66211,-1.822267 -0.15401,-0.02508 -0.29967,-0.01237 -0.45117,0.02148 z" /><path
           style="fill:#959595;stroke-width:3.60258"
           d="m 273.67529,191.46407 c -0.40227,-0.4445 -0.43788,-3.03416 -0.43788,-31.84128 0,-30.04255 0.0203,-31.37579 0.48385,-31.79531 0.42461,-0.38427 1.34235,-0.43789 7.4949,-0.43789 h 7.01103 l 0.32591,-1.76874 c 1.27475,-6.91834 6.63818,-13.45751 13.21756,-16.11504 3.05117,-1.23242 4.74339,-1.54401 8.37612,-1.54228 4.22938,0.002 6.09801,0.4351 9.92188,2.29958 2.48856,1.2134 3.05402,1.63189 5.42509,4.01501 3.61769,3.63609 5.24381,6.54416 6.17354,11.04042 l 0.42824,2.07105 h 7.06844 c 7.00438,0 7.07216,0.005 7.48031,0.58804 0.36714,0.52416 0.41188,3.98288 0.41188,31.84128 0,29.94162 -0.0203,31.27163 -0.48386,31.69113 -0.44524,0.40294 -3.35591,0.43788 -36.47149,0.43788 -34.52822,0 -36.00539,-0.0196 -36.42552,-0.48385 z m 65.48868,-7.36236 c 0.46196,-0.41807 0.48385,-1.5215 0.48385,-24.38698 0,-21.91359 -0.0372,-23.99022 -0.43788,-24.43295 -0.40279,-0.44508 -0.98832,-0.48385 -7.30688,-0.48385 h -6.86901 l 0.18281,-0.72761 c 0.37183,-1.4799 0.46305,-6.06732 0.15059,-7.57246 -0.52106,-2.5099 -2.24061,-5.59419 -4.21634,-7.56265 -3.02597,-3.01483 -6.81293,-4.59672 -11.00433,-4.59672 -7.07269,0 -13.30246,4.84365 -15.08444,11.72819 -0.44672,1.72585 -0.43932,6.21406 0.0132,8.00364 l 0.18398,0.72761 h -6.82303 c -5.9776,0 -6.88298,0.0542 -7.30688,0.43788 -0.46196,0.41807 -0.48386,1.5215 -0.48386,24.38698 0,21.91359 0.0372,23.99022 0.43789,24.43295 0.41906,0.46306 1.66603,0.48385 29.01718,0.48385 26.22205,0 28.61921,-0.0361 29.06316,-0.43788 z"
           id="path7" /><path
           style="fill:#f8c500;stroke-width:3.60258"
           d="m 286.69736,158.13364 c -0.42928,-0.30068 -0.49537,-0.70854 -0.49537,-3.05718 0,-1.75516 0.11189,-2.82208 0.3175,-3.0277 0.24046,-0.24046 4.50548,-0.3175 17.57589,-0.3175 15.33667,0 17.30469,0.0463 17.67417,0.41577 0.5362,0.5362 0.60731,5.44852 0.085,5.87479 -0.21458,0.17515 -6.35875,0.30311 -17.49629,0.36437 -13.85174,0.0762 -17.2612,0.0274 -17.66094,-0.25255 z"
           id="path6" /><path
           style="fill:#fa9900;stroke-width:3.60258"
           d="m 286.51949,178.40126 c -0.434,-0.43401 -0.434,-5.54558 0,-5.97959 0.24164,-0.24163 5.36016,-0.3175 21.42194,-0.3175 24.41911,0 21.65223,-0.43489 21.65223,3.40329 0,1.81063 -0.0994,2.47918 -0.41578,2.79552 -0.37098,0.37098 -2.67424,0.41578 -21.37833,0.41578 -15.95143,0 -21.03846,-0.0759 -21.28006,-0.3175 z"
           id="path5" /><path
           style="fill:#0071f9;stroke-width:3.60258"
           d="m 327.94001,200.76729 -1.52135,-0.11452 v -4.35243 -4.35242 l 8.40052,-3.9e-4 8.40052,-4e-4 -0.0792,3.95099 -0.0792,3.951 -0.71453,0.15268 c -2.73474,0.58435 -10.98781,1.02287 -14.40673,0.76549 z m 27.54174,-6.82791 c -0.0813,-2.20879 -0.16331,-2.55705 -0.75268,-3.19535 -1.05501,-1.14263 -2.09676,-1.44194 -5.01858,-1.44194 h -2.65433 v -3.83646 -3.83646 h 12.5677 12.56771 v 2.61366 2.61366 l -1.38906,1.06414 c -3.47549,2.66252 -10.16244,6.50046 -13.87683,7.96453 l -1.35271,0.53319 z"
           id="path4" /><path
           style="fill:#14ab75;stroke-width:3.60258"
           d="m 286.51949,147.97418 c -0.434,-0.43401 -0.434,-5.54558 0,-5.97959 0.22439,-0.22438 1.77358,-0.3175 5.28236,-0.3175 5.84265,0 5.51264,-0.19798 5.51264,3.30729 0,3.50528 0.33001,3.3073 -5.51264,3.3073 -3.50878,0 -5.05797,-0.0931 -5.28236,-0.3175 z"
           id="path3" /><path
           id="path2"
           style="fill:#873f2e;stroke-width:3.60258"
           d="m 353.66797,65.001953 c -4.78644,0.100489 -9.36253,3.000083 -11.52694,7.267466 -0.79366,1.41619 -1.21194,3.001459 -1.64884,4.543081 -0.77181,0.204639 -1.48151,0.625827 -2.22266,0.935547 3.055,0.436857 6.15126,0.273731 9.22725,0.363597 4.16515,0.0936 8.344,-0.02821 12.4979,0.32221 1.94999,0.373691 3.49434,2.0598 4.01155,3.941442 0.55439,1.806252 0.4645,3.719922 0.61486,5.583688 1.24694,0.01581 2.51856,-0.01518 3.72657,0.300782 0.86586,-0.138486 0.72676,-1.259031 0.79615,-1.914718 0.0621,-3.472546 0.21749,-6.963472 -0.12349,-10.424988 -1.13462,-5.605478 -6.15225,-10.267173 -11.88744,-10.76308 -1.14979,-0.134646 -2.30758,-0.183972 -3.46491,-0.155027 z" /><path
           style="fill:#6c3225;stroke-width:3.60258"
           d="m 329.86024,83.131484 c 0.002,-5.906426 0.26344,-7.697718 1.48738,-10.208485 1.81274,-3.718615 5.56,-6.508401 9.62312,-7.164289 0.94589,-0.152689 3.92245,-0.26839 6.61458,-0.257113 4.49027,0.01881 4.78214,0.04783 3.53163,0.351157 -5.11532,1.240791 -8.78251,5.196622 -9.99154,10.77799 -0.13239,0.611131 -0.32242,0.726018 -1.45961,0.882421 -1.88291,0.258966 -3.92711,1.574523 -4.90327,3.155515 -0.73507,1.190541 -0.81091,1.533004 -0.89348,4.034896 l -0.0902,2.733936 h -1.28161 c -0.70488,0 -1.58701,0.116116 -1.96029,0.258035 l -0.67868,0.258034 z"
           id="path1" /><path
           style="fill:#ffffff;stroke:#ffffff;stroke-width:0"
           d="M 1311.7733,584.33904 V 483.17538 l -3.7057,-1.40893 c -2.0382,-0.77491 -14.6614,-1.40893 -28.0517,-1.40893 h -24.3458 l -1.5015,-7.00094 c -2.7261,-12.7115 -7.2592,-22.4789 -15.3567,-33.08905 l -7.9936,-10.47396 h 32.2752 32.2751 l 1.6036,10.35969 c 1.8837,12.16986 4.704,16.60655 13.441,21.14399 16.2303,8.429 33.0289,-3.82108 33.1115,-24.14597 l 0.032,-7.81147 36.0179,0.86082 c 29.6759,0.70925 36.8621,1.28863 40.8123,3.29047 6.7411,3.41611 9.7449,6.32762 12.8939,12.49762 2.5133,4.92433 2.7357,9.06371 2.7357,50.92512 v 45.56511 h -14.6035 c -14.5084,0 -14.598,0.0216 -13.7712,3.31605 5.3039,21.13229 9.5068,71.11954 9.5678,113.79426 0.026,18.01401 0,18.1784 -4.026,22.03143 l -4.0519,3.882 h -48.679 -48.6791 z"
           id="path16"
           transform="scale(0.26458333)" /><path
           style="fill:#ffffff;stroke:#ffffff;stroke-width:0"
           d="m 1067.6217,695.81769 -5.0564,-0.92455 v -91.73745 -91.73746 l 26.7266,-0.38706 26.7267,-0.38706 3.5381,6.6905 c 6.0847,11.50627 15.1765,20.26305 27.2076,26.2049 10.6376,5.25368 11.5392,5.4402 26.2522,5.4313 13.8966,-0.008 15.9985,-0.38098 23.9044,-4.2372 10.5636,-5.15253 24.3338,-18.52464 28.293,-27.47506 l 2.9029,-6.56266 h 26.4906 c 26.2505,0 26.4985,0.0295 27.3617,3.25054 1.4754,5.50554 0.9944,177.85456 -0.503,180.22437 -1.1944,1.89029 -14.613,2.19284 -105.0786,2.36924 -57.0402,0.11121 -105.9848,-0.21385 -108.7658,-0.72235 z m 177.335,-23.01718 c 0.9932,-1.26331 1.8058,-6.05043 1.8058,-10.63807 0,-7.13682 -0.4693,-8.60922 -3.2505,-10.19783 -2.5379,-1.4496 -20.4081,-1.85668 -81.5049,-1.85668 -43.0398,0 -78.7095,0.45546 -79.2658,1.01215 -1.6184,1.61924 -2.5599,13.51263 -1.512,19.09849 l 0.9609,5.12198 36.4174,0.47688 c 20.0296,0.26228 56.2458,0.20757 80.4804,-0.12157 38.0823,-0.51723 44.3079,-0.91021 45.8687,-2.89535 z m -100.4056,-35.89797 14.0857,-0.93216 v -11.26569 c 0,-6.19613 -0.4876,-11.56048 -1.0835,-11.92078 -0.596,-0.36029 -17.2247,-0.88624 -36.9528,-1.16877 -41.5127,-0.59451 -39.9767,-1.10876 -39.9767,13.38374 0,12.56621 0.325,12.71924 27.1409,12.78238 12.4854,0.0294 29.0393,-0.36602 36.7864,-0.87872 z m 70.7895,-38.8192 c 2.0868,-0.83819 2.5282,-2.87169 2.5282,-11.64526 0,-9.03074 -0.4203,-10.8547 -2.7943,-12.12525 -3.5259,-1.88701 -128.4901,-2.02342 -131.4608,-0.14351 -2.6733,1.69174 -3.8932,17.37569 -1.6739,21.52234 1.5275,2.85418 3.0201,3.08855 22.9128,3.59772 31.3308,0.80195 107.5606,-0.0301 110.488,-1.20604 z m -93.7494,-38.66111 c 2.0754,-1.5176 2.438,-3.71899 2.0819,-12.64099 l -0.4311,-10.80337 -20.5139,-0.4004 -20.5139,-0.40039 -0.9729,5.18587 c -1.3217,7.04501 0.072,18.08595 2.4758,19.60877 3.2082,2.03274 34.9729,1.57189 37.8741,-0.54949 z"
           id="path17"
           transform="scale(0.26458333)" /></g></g></g></svg>
