<?xml version="1.0" encoding="UTF-8" standalone="no"?>
<!-- Created with Inkscape (http://www.inkscape.org/) -->

<svg
   version="1.1"
   id="svg1"
   width="40.044006"
   height="37.904762"
   viewBox="0 0 40.044006 37.904763"
   sodipodi:docname="prancheta.svg"
   xml:space="preserve"
   inkscape:export-filename="prancheta.svg"
   inkscape:export-xdpi="74.276894"
   inkscape:export-ydpi="74.276894"
   xmlns:inkscape="http://www.inkscape.org/namespaces/inkscape"
   xmlns:sodipodi="http://sodipodi.sourceforge.net/DTD/sodipodi-0.dtd"
   xmlns="http://www.w3.org/2000/svg"
   xmlns:svg="http://www.w3.org/2000/svg"><defs
     id="defs1" /><sodipodi:namedview
     id="namedview1"
     pagecolor="#ffffff"
     bordercolor="#000000"
     borderopacity="0.25"
     inkscape:showpageshadow="2"
     inkscape:pageopacity="0.0"
     inkscape:pagecheckerboard="0"
     inkscape:deskcolor="#d1d1d1" /><g
     inkscape:groupmode="layer"
     inkscape:label="Image"
     id="g1"
     transform="translate(-1040.0161,-10.833525)"><g
       id="g2"
       transform="translate(12.101403,0.75633768)"><g
         id="g8"
         transform="matrix(0.98163836,0,0,0.96055208,17.719903,4.389463)"
         style="stroke-width:1.02983"
         inkscape:export-filename="prancheta.svg"
         inkscape:export-xdpi="124.69102"
         inkscape:export-ydpi="124.69102"><ellipse
           style="fill:#00c0e0;fill-opacity:0.968627;stroke:#ffffff;stroke-width:0"
           id="path9"
           cx="1049.4871"
           cy="25.652025"
           rx="20.396519"
           ry="19.730717"
           inkscape:highlight-color="#0095ae" /><g
           id="g9"
           transform="matrix(0.26553442,0,0,0.26324671,780.792,10.944914)"
           style="stroke-width:3.89514"><path
             id="path8"
             style="fill:#e3e3e3;stroke-width:3.89514"
             d="m 1011.4434,14.439453 c -11.3587,0.06046 -22.71838,0.02311 -34.07622,0.172702 -1.73746,0.0726 -3.72698,-0.05506 -5.07774,1.256151 -1.11107,0.846506 -1.80828,2.164738 -1.78723,3.571478 -0.25605,6.012816 -0.16302,12.035522 -0.21515,18.052792 -0.0183,20.013161 -0.12549,40.026893 0.0215,60.039718 0.0716,1.642056 -0.0733,3.318816 0.22497,4.936206 0.61377,2.25674 2.83573,3.87622 5.16174,3.85767 6.31148,0.254 12.63219,0.12827 18.94766,0.17638 6.26877,0.004 12.53757,0.006 18.80627,0.0111 0,-30.693357 0,-61.386717 0,-92.080076 -0.6686,0.002 -1.3372,0.0039 -2.0058,0.0059 z m -7.0821,17.951172 c 0.9311,-0.08663 1.6685,0.846705 1.5274,1.726563 -3.6675,3.726419 -7.44299,7.234552 -11.26582,10.817464 -1.29672,1.200398 -2.58862,2.409682 -3.92952,3.559489 -0.62343,0.137127 -1.36576,0.201386 -1.78406,-0.37989 -2.59091,-2.298806 -5.1322,-4.664675 -7.53235,-7.161126 -0.3098,-0.945124 0.58284,-1.971311 1.5707,-1.823564 0.85897,-0.09685 1.32682,0.834923 1.97074,1.249519 1.73214,1.557758 3.41524,3.169121 5.12458,4.751779 4.55824,-4.246832 9.02269,-8.597932 13.70503,-12.708984 0.2011,-0.04525 0.409,-0.03375 0.6133,-0.03125 z m 0,23.587891 c 0.9313,-0.08595 1.6658,0.849557 1.5254,1.728515 -3.3554,3.41527 -6.84698,6.66264 -10.30472,9.921875 -1.62122,1.495922 -3.21914,3.019986 -4.89453,4.455078 -0.6302,0.138074 -1.37811,0.197073 -1.79749,-0.395795 -2.58312,-2.296466 -5.12169,-4.654255 -7.51501,-7.147173 -0.31167,-0.945739 0.58531,-1.966462 1.5707,-1.823565 0.85632,-0.0914 1.32842,0.833529 1.97074,1.24952 1.71425,1.542417 3.39644,3.158008 5.12458,4.753732 4.56013,-4.247486 9.02227,-8.604272 13.71093,-12.710937 0.2001,-0.03974 0.4064,-0.03293 0.6094,-0.03125 z m 0,23.58789 c 0.932,-0.08609 1.6647,0.849481 1.5254,1.728516 -3.3548,3.415796 -6.84738,6.662248 -10.30472,9.921875 -1.62122,1.495922 -3.21914,3.019986 -4.89453,4.455078 -0.62995,0.139096 -1.37742,0.194607 -1.79749,-0.395796 -2.58312,-2.296465 -5.12169,-4.654254 -7.51501,-7.147173 -0.31041,-0.944113 0.58382,-1.965706 1.56875,-1.822941 0.85851,-0.09242 1.32943,0.830624 1.97188,1.249817 1.73224,1.557598 3.41376,3.170586 5.12344,4.752812 4.56353,-4.244551 9.02373,-8.604109 13.71288,-12.710938 0.2001,-0.03974 0.4064,-0.03293 0.6094,-0.03125 z" /><path
             id="path7"
             style="fill:#d7d7d7;stroke-width:3.89514"
             d="m 1009.4492,106.52734 c 12.8008,-0.0727 25.6046,0.002 38.4031,-0.23699 1.4109,-0.0261 2.8003,-0.6352 3.6383,-1.79381 0.9945,-1.16643 1.0949,-2.74775 1.0528,-4.20797 0.2446,-8.962485 0.1128,-17.929756 0.1588,-26.894429 0,-17.587036 0.065,-35.175192 -0.1221,-52.761329 -0.074,-1.560561 -0.1288,-3.309656 -1.3476,-4.461699 -0.9409,-1.08943 -2.3903,-1.592273 -3.8061,-1.487632 -6.0904,-0.23359 -12.3544,-0.122461 -18.5267,-0.183186 -6.4835,-0.02175 -12.967,-0.04314 -19.4505,-0.06475 0,30.697266 0,61.394531 0,92.091795 z" /><path
             style="fill:#96a0eb;stroke-width:3.89514"
             d="m 1016.8888,90.548933 c -1.0225,-0.559777 -1.8699,-1.867247 -1.8699,-2.885068 0,-1.033798 0.8591,-2.339245 1.9045,-2.893967 0.8789,-0.466332 1.1246,-0.475783 12.3722,-0.475783 11.2476,0 11.4934,0.0095 12.3722,0.475783 1.0454,0.554722 1.9045,1.860169 1.9045,2.893967 0,1.033798 -0.8591,2.339246 -1.9045,2.893968 -0.8793,0.466596 -1.1188,0.475683 -12.4046,0.470622 -11.2733,-0.0051 -11.5256,-0.01483 -12.3744,-0.479522 z m 0,-23.588254 c -1.0225,-0.559778 -1.8699,-1.867247 -1.8699,-2.885068 0,-1.033798 0.8591,-2.339245 1.9045,-2.893968 0.8789,-0.466331 1.1246,-0.475783 12.3722,-0.475783 11.2476,0 11.4934,0.0095 12.3722,0.475783 1.0454,0.554723 1.9045,1.86017 1.9045,2.893968 0,1.033798 -0.8591,2.339245 -1.9045,2.893967 -0.8793,0.466597 -1.1188,0.475684 -12.4046,0.470623 -11.2733,-0.0051 -11.5256,-0.01483 -12.3744,-0.479522 z m 0,-23.588255 c -1.0225,-0.559777 -1.8699,-1.867246 -1.8699,-2.885067 0,-1.033798 0.8591,-2.339246 1.9045,-2.893968 0.8789,-0.466332 1.1246,-0.475783 12.3722,-0.475783 11.2476,0 11.4934,0.0095 12.3722,0.475783 1.0454,0.554722 1.9045,1.86017 1.9045,2.893968 0,1.033798 -0.8591,2.339245 -1.9045,2.893967 -0.8793,0.466596 -1.1188,0.475684 -12.4046,0.470623 -11.2733,-0.0051 -11.5256,-0.01483 -12.3744,-0.479523 z"
             id="path6" /><path
             style="fill:#fd9f29;stroke-width:3.89514"
             d="m 990.03753,12.799239 c 0.003,-4.1322898 0.27746,-5.5056449 1.38291,-6.9248369 1.82472,-2.3425987 3.54362,-2.8971472 8.99186,-2.9009361 l 3.8341,-0.00267 0.3041,-1.3530782 c 0.6951,-3.0924236 3.7403,-5.373351 7.1878,-5.3837567 1.4803,-0.00447 3.4962,0.8533754 4.7196,2.0084864 1.1239,1.06106629 2.1302,3.0334447 2.1302,4.1751506 v 0.5532016 h 4.1551 c 4.9926,0 6.1769,0.298055 7.9914,2.0111527 1.8145,1.7130978 2.1302,2.8312604 2.1302,7.5449016 v 3.922948 h -21.415 -21.4151 z"
             id="path5" /><path
             style="fill:#12c27a;stroke-width:3.89514"
             d="m 988.46671,97.317978 c -0.56287,-0.263053 -2.58301,-1.992409 -4.79175,-4.102016 -3.06242,-2.924965 -3.87848,-3.835843 -4.12087,-4.599664 -0.56318,-1.774703 0.50077,-3.589539 2.42317,-4.133322 1.63605,-0.462783 2.56218,-0.01019 5.48424,2.680117 l 2.58499,2.379979 6.12119,-5.74652 c 5.12192,-4.808429 6.28632,-5.792762 7.13242,-6.029789 2.6746,-0.749176 5.148,1.585444 4.3569,4.112364 -0.2531,0.808456 -1.4345,2.03151 -7.70953,7.981372 -8.716,8.264345 -9.15043,8.54654 -11.48076,7.457479 z m 0,-23.588254 c -0.56287,-0.263054 -2.58301,-1.992409 -4.79175,-4.102016 -3.06242,-2.924965 -3.87848,-3.835843 -4.12087,-4.599664 -0.56318,-1.774703 0.50077,-3.589539 2.42317,-4.133322 1.63605,-0.462784 2.56218,-0.01019 5.48424,2.680116 l 2.58499,2.379979 6.12119,-5.746519 c 5.12192,-4.808429 6.28632,-5.792762 7.13242,-6.029789 2.6746,-0.749176 5.148,1.585443 4.3569,4.112363 -0.2531,0.808457 -1.4345,2.031511 -7.70953,7.981373 -8.716,8.264345 -9.15043,8.54654 -11.48076,7.457479 z m 0,-23.588254 c -0.56287,-0.263054 -2.58301,-1.99241 -4.79175,-4.102016 -3.06242,-2.924965 -3.87848,-3.835843 -4.12087,-4.599664 -0.56318,-1.774703 0.50077,-3.589539 2.42317,-4.133322 1.63605,-0.462784 2.56218,-0.01019 5.48424,2.680116 l 2.58499,2.379979 6.12119,-5.74652 c 5.12192,-4.808429 6.28632,-5.792762 7.13242,-6.029788 2.6746,-0.749176 5.148,1.585443 4.3569,4.112363 -0.2531,0.808456 -1.4345,2.03151 -7.70953,7.981373 -8.716,8.264345 -9.15043,8.546539 -11.48076,7.457479 z"
             id="path4" /><path
             style="fill:#886647;stroke-width:3.89514"
             d="m 973.78664,111.01855 c -4.14146,-0.65739 -7.80722,-4.19908 -8.50401,-8.21618 -0.31024,-1.78857 -0.31024,-82.853748 0,-84.64232 0.71525,-4.123508 4.35012,-7.555281 8.71766,-8.2305643 0.77043,-0.11912 4.69336,-0.217168 8.7176,-0.217884 l 7.31681,-0.0013 v 3.3610303 3.361029 l -7.7927,0.06488 c -7.62518,0.06349 -7.80869,0.07565 -8.53668,0.565922 -1.63921,1.103929 -1.51649,-2.409608 -1.51649,43.418044 0,45.827663 -0.12272,42.314123 1.51649,43.418053 l 0.74398,0.50104 18.50023,0.0602 18.50027,0.0602 v 3.36571 3.36572 l -18.26233,-0.0264 c -10.04425,-0.0145 -18.77463,-0.10775 -19.40083,-0.20715 z"
             id="path3"
             sodipodi:nodetypes="ssssscccsssscccccsss" /><path
             style="fill:#725439;stroke-width:3.89514"
             d="m 1011.4498,107.89646 v -3.37582 l 18.6747,-0.0602 19.243,-0.1939 1.0571,-0.8233 0.1671,-42.96203 V 18.254491 c -0.4939,-1.331711 -0.604,-1.482388 -1.7919,-1.692364 l -7.9675,-0.06477 -7.9675,-0.06477 V 13.051369 9.6701507 l 8.1496,0.09303 c 7.5148,0.08578 8.2536,0.129286 9.4836,0.5584853 3.3837,1.180671 5.6049,3.334506 6.7831,6.577447 0.4338,1.19373 0.449,2.669723 0.449,43.582107 0,40.91239 -0.015,42.38838 -0.449,43.58211 -1.1758,3.23614 -3.3693,5.36716 -6.7831,6.58971 -1.3131,0.47024 -1.6293,0.47883 -20.1911,0.54849 l -18.8571,0.0708 z"
             id="path2"
             sodipodi:nodetypes="ccccccccccccsscscsscc" /></g></g></g></g></svg>
