<?xml version="1.0" encoding="UTF-8" standalone="no"?>
<!-- Created with Inkscape (http://www.inkscape.org/) -->

<svg
   version="1.1"
   id="svg1"
   width="236.16347"
   height="209.45279"
   viewBox="0 0 236.16347 209.45279"
   sodipodi:docname="prancheta.svg"
   inkscape:export-filename="prancheta.svg"
   inkscape:export-xdpi="9.7731619"
   inkscape:export-ydpi="9.7731619"
   xml:space="preserve"
   xmlns:inkscape="http://www.inkscape.org/namespaces/inkscape"
   xmlns:sodipodi="http://sodipodi.sourceforge.net/DTD/sodipodi-0.dtd"
   xmlns="http://www.w3.org/2000/svg"
   xmlns:svg="http://www.w3.org/2000/svg"><defs
     id="defs1" /><sodipodi:namedview
     id="namedview1"
     pagecolor="#ffffff"
     bordercolor="#000000"
     borderopacity="0.25"
     inkscape:showpageshadow="2"
     inkscape:pageopacity="0.0"
     inkscape:pagecheckerboard="0"
     inkscape:deskcolor="#d1d1d1" /><g
     inkscape:groupmode="layer"
     inkscape:label="Image"
     id="g1"
     transform="translate(-3584.4043,-6641.0171)"><path
       style="fill:#000000;fill-opacity:1;stroke-width:0.999998"
       d="m 3591.2812,6849.6213 c -2.6776,-1.0148 -3.6758,-1.7359 -5.3387,-3.8574 l -1.2836,-1.6374 -0.1274,-82.6761 -0.1272,-82.6762 1.2664,-2.1628 c 0.8709,-1.4877 1.9812,-2.5778 3.5563,-3.4918 l 2.2899,-1.3288 15.5538,-0.1187 15.5539,-0.1187 0.016,8.7149 c 0,4.7932 0.2313,9.8869 0.5095,11.3191 0.9796,5.0443 4.8003,9.3461 10.168,11.4486 l 2.7907,1.0931 h 32.0873 32.0875 l 2.8096,-1.1005 c 3.0669,-1.2009 7.1215,-4.3139 8.4829,-6.5126 1.8507,-2.9891 2.1674,-5.2054 2.1734,-15.2079 l 0.016,-9.7223 14.819,0.016 c 16.3425,0.016 17.1615,0.1204 20.0593,2.7024 3.0539,2.7214 3.0747,2.8582 3.2227,21.0308 l 0.1354,16.5787 -17.7895,21.286 -17.7896,21.286 -48.4798,0.2048 c -36.6917,0.1555 -48.7315,0.3252 -49.515,0.7008 -1.7979,0.8616 -4.0484,3.3217 -4.3769,4.7846 -0.6528,2.9081 1.1692,6.0651 4.3351,7.5119 1.4474,0.6612 4.7899,0.7315 43.8344,0.9206 l 42.2676,0.2046 -7.3782,8.8009 -7.3782,8.801 -35.3792,0.2048 -35.3795,0.2046 -1.6491,0.983 c -1.8465,1.1004 -3.4731,3.7074 -3.4731,5.5667 0,1.8591 1.6266,4.4661 3.4731,5.5665 l 1.6491,0.983 29.2706,0.1124 c 16.0989,0.06 29.2706,0.1812 29.2706,0.2664 0,0.085 -0.5489,1.1399 -1.2197,2.3442 -1.4751,2.6476 -1.5749,5.5673 -0.5186,15.1608 0.7821,7.1029 1.4332,8.7314 4.6071,11.5223 2.4358,2.1418 5.1145,3.2088 8.651,3.4462 2.5116,0.1683 4.3852,-0.122 12.0166,-1.8652 4.9725,-1.1353 9.5921,-2.2443 10.2656,-2.4645 3.5356,-1.1552 5.3206,-3.0185 22.5347,-23.5247 9.565,-11.3944 17.5645,-20.726 17.7766,-20.7371 0.2122,-0.016 0.3226,13.1968 0.245,29.3507 l -0.1417,29.3707 -1.3523,2.3011 c -1.4414,2.4529 -3.821,4.1652 -6.77,4.872 -1.054,0.2525 -29.0091,0.3965 -75.8892,0.3909 -73.5642,-0.016 -74.2402,-0.016 -76.4165,-0.8411 z m 126.0524,-113.5071 c 6.1424,-2.1444 6.5981,-9.4662 0.7674,-12.3361 -1.6265,-0.8005 -2.6841,-0.8214 -47.7125,-0.9432 -25.327,-0.069 -47.1952,-0.016 -48.5962,0.1283 -3.2655,0.3255 -5.4889,1.5755 -6.9147,3.8875 -2.0713,3.3592 -0.5017,7.3032 3.5831,9.0045 1.917,0.7983 2.9936,0.816 49.6167,0.8163 39.1427,0 47.9427,-0.1 49.2562,-0.5581 z m -29.0433,87.0275 c -0.9702,-0.6565 -1.1393,-1.4314 -1.8564,-8.5125 l -0.7891,-7.7899 3.133,-3.7779 c 2.0875,-2.5171 3.3637,-3.704 3.8243,-3.5564 0.5159,0.1656 20.3871,11.5329 21.5944,12.3532 0.2671,0.1814 -5.2108,6.8638 -6.2686,7.6472 -0.6934,0.5135 -16.6084,4.3585 -18.0406,4.3585 -0.2913,0 -1.0099,-0.325 -1.597,-0.7222 z m 23.5925,-27.7816 c -10.5533,-6.1589 -10.8995,-6.4047 -10.2253,-7.2539 8.1765,-10.2981 96.6649,-115.616 97.4449,-115.9781 2.6958,-1.251 4.2005,-0.7786 12.025,3.7765 4.0799,2.3752 7.8879,4.8161 8.462,5.4238 2.3795,2.5196 4.6351,-0.4254 -47.7312,62.3158 -26.5843,31.8506 -48.4959,57.9507 -48.6935,58.0004 -0.1972,0.049 -5.274,-2.7784 -11.2819,-6.2845 z m -74.5664,-100.9527 c -0.8907,-0.5066 -2.0809,-1.4409 -2.6444,-2.0767 -0.9954,-1.1223 -1.0246,-1.5795 -1.0246,-15.9645 0,-14.0729 0.05,-14.8781 0.9796,-16.1988 1.8595,-2.638 3.1361,-3.0972 9.0338,-3.2502 l 5.2912,-0.138 0.2928,-2.067 c 1.2003,-8.4676 11.5361,-14.9063 21.6751,-13.5022 8.2831,1.1469 14.4954,6.2516 15.9384,13.0968 l 0.536,2.5421 h 4.9022 c 5.9486,0 8.1268,0.7822 9.6894,3.4794 0.9219,1.5911 0.9799,2.5277 0.9799,15.8026 0,13.8287 -0.022,14.1471 -1.1023,15.9073 -2.1115,3.4407 -0.5592,3.2893 -33.7219,3.2893 h -29.2056 z m 39.0384,-39.0286 c -0.6642,-3.4194 -4.4804,-5.7095 -8.9934,-5.3966 -3.8665,0.2678 -6.6489,2.2616 -7.4863,5.364 l -0.4057,1.5036 h 8.5855 8.5854 z"
       id="path5"
       inkscape:export-filename="prancheta.svg"
       inkscape:export-xdpi="8.8303814"
       inkscape:export-ydpi="8.8303814" /></g></svg>
